<?xml version="1.0" standalone="no"?>
<!DOCTYPE svg PUBLIC "-//W3C//DTD SVG 20010904//EN"
 "http://www.w3.org/TR/2001/REC-SVG-20010904/DTD/svg10.dtd">
<svg version="1.0" xmlns="http://www.w3.org/2000/svg"
 width="640.000000pt" height="640.000000pt" viewBox="0 0 640.000000 640.000000"
 preserveAspectRatio="xMidYMid meet">
<metadata>
Created by potrace 1.14, written by Peter Selinger 2001-2017
</metadata>
<g transform="translate(0.000000,640.000000) scale(0.100000,-0.100000)"
fill="#000000" stroke="none">
<path d="M1755 4860 c-4 -12 -5 -24 -2 -27 3 -2 8 5 12 17 4 12 5 24 2 27 -3
2 -8 -5 -12 -17z"/>
<path d="M2795 4221 c3 -5 -1 -12 -7 -14 -8 -4 -7 -6 4 -6 23 -1 32 15 12 23
-8 3 -13 2 -9 -3z"/>
<path d="M3530 4206 c0 -9 5 -16 10 -16 6 0 10 4 10 9 0 6 -4 13 -10 16 -5 3
-10 -1 -10 -9z"/>
<path d="M3560 4203 c0 -10 4 -14 8 -8 4 6 11 13 16 18 5 4 2 7 -7 7 -10 0
-17 -8 -17 -17z"/>
<path d="M1766 4153 c-11 -11 -6 -23 9 -23 8 0 15 4 15 9 0 13 -16 22 -24 14z"/>
<path d="M2495 4090 c-3 -5 -2 -10 4 -10 5 0 13 5 16 10 3 6 2 10 -4 10 -5 0
-13 -4 -16 -10z"/>
<path d="M2020 4042 c9 -19 30 -23 30 -5 0 4 -3 3 -7 0 -3 -4 -12 1 -20 11
-13 15 -13 15 -3 -6z"/>
<path d="M2203 3872 c-8 -5 -6 -14 7 -32 11 -14 20 -20 20 -14 0 5 -5 15 -12
22 -6 6 -8 15 -4 19 4 4 12 1 17 -7 9 -13 10 -13 7 -1 -5 18 -19 23 -35 13z"/>
<path d="M3277 3834 c4 -11 53 -7 53 5 0 3 -13 6 -29 6 -17 0 -27 -5 -24 -11z"/>
<path d="M1910 3777 c0 -5 9 -20 20 -34 11 -14 20 -21 20 -15 0 12 -39 60 -40
49z"/>
<path d="M2210 3720 c0 -5 5 -10 11 -10 5 0 7 5 4 10 -3 6 -8 10 -11 10 -2 0
-4 -4 -4 -10z"/>
<path d="M2945 3710 c-3 -5 -2 -10 4 -10 5 0 13 5 16 10 3 6 2 10 -4 10 -5 0
-13 -4 -16 -10z"/>
<path d="M2191 3691 c-2 -22 61 -76 89 -76 14 0 29 -4 33 -10 5 -6 7 -4 4 5
-2 8 -12 14 -21 14 -9 -1 -15 3 -13 9 4 14 -9 29 -42 46 -19 11 -25 11 -31 1
-6 -9 -9 -8 -13 6 -2 10 -5 13 -6 5z m54 -31 c3 -6 -1 -7 -9 -4 -18 7 -21 14
-7 14 6 0 13 -4 16 -10z"/>
<path d="M3846 3641 c-17 -18 -16 -20 3 -26 12 -3 21 -10 21 -15 0 -5 7 -7 17
-3 14 5 13 8 -7 15 -16 6 -21 14 -17 28 6 25 4 25 -17 1z"/>
<path d="M3580 3610 c12 -8 13 -12 2 -19 -11 -6 -10 -10 3 -15 14 -5 15 -9 5
-21 -10 -12 -9 -15 8 -15 12 0 24 -4 27 -10 8 -12 45 -13 45 -1 0 5 -6 8 -14
7 -8 0 -14 3 -13 8 1 5 -9 13 -22 17 -18 7 -22 15 -19 34 4 20 1 25 -16 25
-17 0 -18 -2 -6 -10z"/>
<path d="M3925 3611 c3 -6 2 -11 -4 -11 -6 0 -8 -7 -5 -15 4 -9 0 -15 -10 -15
-9 0 -16 -6 -16 -14 0 -8 9 -14 19 -13 11 0 17 5 15 9 -3 4 0 8 5 8 6 0 11 -9
11 -20 0 -15 -7 -20 -26 -20 -19 0 -25 -4 -20 -15 3 -9 0 -15 -10 -15 -8 0
-12 -4 -9 -10 3 -5 14 -10 24 -10 10 0 24 -7 31 -15 8 -9 9 -15 2 -15 -6 0
-14 5 -17 10 -12 19 -22 10 -17 -15 3 -20 0 -25 -17 -25 -12 0 -21 6 -21 15 0
8 -4 15 -10 15 -5 0 -10 -21 -9 -47 1 -33 3 -41 7 -25 l7 23 18 -21 c10 -12
21 -19 26 -16 4 3 16 -12 26 -34 20 -44 39 -54 29 -16 -4 17 2 31 22 52 19 18
24 29 16 32 -10 3 -9 8 3 22 28 30 16 63 -28 75 -35 10 -36 11 -20 28 15 15
16 20 5 38 -9 14 -10 24 -3 33 7 8 4 16 -11 25 -11 7 -17 8 -13 2z m75 -172
c0 -18 -2 -19 -15 -9 -15 12 -12 30 6 30 5 0 9 -10 9 -21z"/>
<path d="M3650 3590 c0 -6 7 -10 15 -10 8 0 15 2 15 4 0 2 -7 6 -15 10 -8 3
-15 1 -15 -4z"/>
<path d="M2426 3555 c9 -14 21 -25 28 -24 7 0 6 2 -1 6 -7 2 -13 11 -13 18 0
7 -7 15 -15 19 -13 5 -13 2 1 -19z"/>
<path d="M2517 3569 c7 -7 15 -10 18 -7 3 3 -2 9 -12 12 -14 6 -15 5 -6 -5z"/>
<path d="M3960 3573 c0 -5 7 -18 15 -29 12 -16 14 -16 15 -3 0 9 -7 22 -15 29
-8 7 -15 8 -15 3z"/>
<path d="M2610 3550 c0 -5 5 -10 11 -10 5 0 7 5 4 10 -3 6 -8 10 -11 10 -2 0
-4 -4 -4 -10z"/>
<path d="M3768 3543 c7 -3 16 -2 19 1 4 3 -2 6 -13 5 -11 0 -14 -3 -6 -6z"/>
<path d="M3710 3500 c-8 -5 -10 -10 -5 -10 6 0 17 5 25 10 8 5 11 10 5 10 -5
0 -17 -5 -25 -10z"/>
<path d="M3740 3490 c-13 -8 -12 -10 3 -10 9 0 17 5 17 10 0 12 -1 12 -20 0z"/>
<path d="M3818 3493 c7 -3 16 -2 19 1 4 3 -2 6 -13 5 -11 0 -14 -3 -6 -6z"/>
<path d="M3773 3475 c0 -8 4 -15 8 -15 4 0 9 7 13 15 3 9 0 15 -8 15 -7 0 -13
-7 -13 -15z"/>
<path d="M3804 3452 c5 -8 76 -4 76 4 0 2 -18 4 -41 4 -22 0 -38 -4 -35 -8z"/>
<path d="M2315 3368 c4 -13 19 -33 33 -45 30 -27 41 -30 21 -5 -8 9 -21 29
-29 45 -16 33 -34 36 -25 5z"/>
<path d="M2500 3350 c-12 -8 -13 -11 -2 -22 8 -7 13 -8 12 -3 -5 21 1 29 10
15 5 -8 12 -12 15 -9 11 12 -20 28 -35 19z"/>
<path d="M2526 3311 c-3 -5 3 -11 13 -14 14 -3 18 -1 14 9 -6 16 -19 18 -27 5z"/>
<path d="M3920 3217 c0 -7 9 -18 20 -25 12 -7 20 -8 20 -2 0 5 -4 10 -10 10
-5 0 -10 7 -10 15 0 8 -4 15 -10 15 -5 0 -10 -6 -10 -13z"/>
<path d="M2480 2991 c0 -6 4 -13 10 -16 6 -3 7 1 4 9 -7 18 -14 21 -14 7z"/>
<path d="M4175 2840 c-10 -11 -16 -22 -13 -25 3 -3 13 6 22 20 20 30 16 32 -9
5z"/>
<path d="M1902 2791 c13 -22 28 -28 28 -11 0 5 -9 14 -20 20 -19 10 -20 10 -8
-9z"/>
<path d="M2956 2758 c3 -4 11 -5 19 -1 21 7 19 12 -4 10 -11 0 -18 -5 -15 -9z"/>
<path d="M2524 2709 c-3 -6 -2 -15 3 -20 5 -5 9 -1 9 11 0 23 -2 24 -12 9z"/>
<path d="M1985 2550 c-3 -5 -2 -10 4 -10 5 0 13 5 16 10 3 6 2 10 -4 10 -5 0
-13 -4 -16 -10z"/>
<path d="M1552 2237 c-13 -16 -31 -91 -32 -132 0 -18 -17 -56 -43 -95 -42 -64
-76 -134 -138 -280 -17 -41 -48 -95 -68 -120 -21 -25 -45 -67 -55 -95 -10 -27
-43 -93 -72 -145 -43 -78 -72 -114 -162 -202 -79 -77 -122 -129 -157 -187 -27
-47 -54 -81 -63 -82 -113 -7 -248 64 -290 153 -28 58 -38 148 -22 190 18 45
74 102 121 123 46 21 58 49 33 76 -20 22 -43 24 -102 6 -64 -19 -107 -59 -142
-131 -40 -80 -47 -155 -26 -255 36 -171 136 -255 389 -328 26 -7 29 -13 32
-53 5 -82 26 -131 85 -194 31 -34 62 -75 69 -92 20 -51 29 -172 15 -200 -10
-19 -10 -24 0 -24 6 0 18 6 24 12 10 10 15 10 21 -1 7 -10 11 -9 22 5 17 23
42 28 141 29 42 0 74 3 71 7 -2 5 -25 8 -50 8 l-45 0 23 25 c13 13 29 25 36
25 7 0 10 7 7 15 -4 8 1 17 10 21 23 9 121 143 140 193 25 65 34 129 27 191
l-7 55 -19 -45 -20 -45 -6 45 c-7 52 -3 61 121 237 47 66 90 129 95 138 10 17
13 16 52 -4 55 -27 62 -27 136 10 61 31 144 61 202 73 21 5 35 16 44 37 20 45
-3 65 -82 74 -84 9 -161 32 -181 54 -9 10 -27 53 -40 97 -13 43 -32 94 -42
113 -25 50 -25 91 4 197 22 80 24 99 13 116 -7 11 -10 22 -8 25 7 6 46 -17 79
-46 l27 -24 40 27 c61 43 70 58 77 125 7 60 6 63 -25 95 -29 30 -70 53 -122
69 -16 5 -29 47 -29 93 0 13 -4 24 -8 24 -10 0 -37 -68 -38 -95 -1 -36 -16
-95 -24 -95 -11 0 -23 98 -18 154 3 47 -2 56 -20 33z m252 -303 c4 -10 1 -14
-6 -12 -15 5 -23 28 -10 28 5 0 13 -7 16 -16z"/>
<path d="M2020 2243 c0 -5 5 -15 10 -23 8 -12 10 -11 10 8 0 12 -4 22 -10 22
-5 0 -10 -3 -10 -7z"/>
<path d="M3151 2224 c0 -11 3 -14 6 -6 3 7 2 16 -1 19 -3 4 -6 -2 -5 -13z"/>
<path d="M3117 2216 c-4 -10 -1 -13 8 -9 8 3 12 9 9 14 -7 12 -11 11 -17 -5z"/>
<path d="M2012 2190 c0 -19 2 -27 5 -17 2 9 2 25 0 35 -3 9 -5 1 -5 -18z"/>
<path d="M2042 2180 c0 -14 2 -19 5 -12 2 6 2 18 0 25 -3 6 -5 1 -5 -13z"/>
<path d="M2034 2137 c-6 -8 -8 -34 -4 -69 6 -61 20 -90 20 -44 0 15 4 36 10
46 10 18 3 80 -9 80 -3 -1 -11 -6 -17 -13z"/>
<path d="M4385 2079 c-4 -6 -5 -12 -2 -15 2 -3 7 2 10 11 7 17 1 20 -8 4z"/>
<path d="M2072 2030 c0 -14 2 -19 5 -12 2 6 2 18 0 25 -3 6 -5 1 -5 -13z"/>
<path d="M1987 1962 c-24 -3 -33 -14 -59 -68 -26 -56 -28 -67 -17 -82 12 -15
12 -16 -2 -5 -13 11 -20 8 -42 -15 -15 -16 -25 -31 -22 -35 3 -4 2 -5 -1 -3
-3 2 -16 -6 -29 -18 -13 -13 -43 -28 -66 -35 -37 -11 -41 -15 -36 -39 3 -15
11 -73 18 -129 12 -94 14 -101 31 -92 33 17 159 142 174 171 23 43 82 241 90
296 7 54 3 59 -39 54z"/>
<path d="M4361 1874 c0 -11 3 -14 6 -6 3 7 2 16 -1 19 -3 4 -6 -2 -5 -13z"/>
<path d="M3929 1743 c-13 -16 -12 -17 4 -4 9 7 17 15 17 17 0 8 -8 3 -21 -13z"/>
<path d="M3969 1723 c-13 -16 -12 -17 4 -4 9 7 17 15 17 17 0 8 -8 3 -21 -13z"/>
<path d="M3979 1703 c-13 -16 -12 -17 4 -4 9 7 17 15 17 17 0 8 -8 3 -21 -13z"/>
<path d="M3706 1675 c4 -8 11 -15 16 -15 6 0 5 6 -2 15 -7 8 -14 15 -16 15 -2
0 -1 -7 2 -15z"/>
<path d="M2122 1530 c0 -19 2 -27 5 -17 2 9 2 25 0 35 -3 9 -5 1 -5 -18z"/>
<path d="M4840 1535 c-12 -15 -7 -45 8 -45 4 0 17 6 27 14 16 12 17 16 6 30
-17 20 -25 20 -41 1z"/>
<path d="M4644 1529 c-3 -6 1 -18 10 -27 15 -15 17 -15 32 0 19 19 11 38 -16
38 -10 0 -22 -5 -26 -11z"/>
<path d="M2117 1473 c-4 -3 -7 -11 -7 -17 0 -6 5 -5 12 2 6 6 9 14 7 17 -3 3
-9 2 -12 -2z"/>
<path d="M4279 1389 c0 -2 -2 -13 -4 -24 -2 -11 -7 -36 -10 -55 -4 -19 -11
-43 -17 -53 -9 -18 -11 -18 -34 4 -13 12 -24 20 -24 16 0 -18 26 -59 47 -72
12 -9 23 -22 23 -30 0 -8 5 -15 10 -15 10 0 14 -82 5 -92 -3 -2 -27 0 -54 6
-54 11 -61 23 -61 107 0 48 -18 51 -53 10 -36 -44 -35 -117 4 -171 69 -94 178
-93 237 4 15 25 35 46 44 46 23 0 48 38 48 74 0 21 -11 40 -39 66 -21 20 -48
58 -60 84 -18 41 -60 105 -62 95z"/>
<path d="M2105 1350 c-3 -5 -1 -10 4 -10 6 0 11 5 11 10 0 6 -2 10 -4 10 -3 0
-8 -4 -11 -10z"/>
<path d="M2131 1018 c-1 -20 4 -40 9 -43 12 -7 12 19 0 55 -7 22 -8 21 -9 -12z"/>
<path d="M3933 873 c-1 -24 -1 -25 7 -8 11 26 12 35 2 35 -4 0 -8 -12 -9 -27z"/>
<path d="M3963 870 c1 -12 8 -20 19 -20 17 0 17 1 1 20 -10 11 -18 20 -20 20
-1 0 -1 -9 0 -20z"/>
<path d="M4516 798 c-43 -68 -70 -252 -47 -321 16 -47 112 -146 153 -158 36
-10 83 7 114 42 45 52 70 205 45 271 -5 14 -30 40 -55 57 -25 17 -59 51 -77
75 -43 60 -106 76 -133 34z"/>
<path d="M2100 735 c0 -48 4 -75 11 -75 6 0 8 7 5 16 -4 9 -1 23 6 31 21 26
20 77 -2 91 -19 12 -20 10 -20 -63z"/>
<path d="M2114 648 c-12 -19 -15 -76 -4 -83 6 -4 8 -10 5 -15 -3 -5 -1 -11 4
-14 5 -3 14 9 20 26 8 21 8 34 2 36 -6 2 -7 12 -1 27 12 31 -9 51 -26 23z"/>
<path d="M4048 613 c7 -3 16 -2 19 1 4 3 -2 6 -13 5 -11 0 -14 -3 -6 -6z"/>
<path d="M3262 564 c10 -10 20 -15 24 -12 3 4 -5 12 -18 18 -22 12 -22 12 -6
-6z"/>
<path d="M2183 554 c9 -11 14 -24 10 -28 -4 -4 0 -4 10 0 9 3 17 2 17 -4 0
-12 38 -22 100 -28 41 -3 43 -2 26 11 -11 8 -29 12 -40 9 -12 -3 -33 -1 -46 5
-14 5 -20 10 -14 10 15 1 13 29 -3 35 -7 3 -12 2 -12 -2 3 -19 -2 -23 -16 -12
-8 7 -15 9 -15 5 0 -4 -8 -1 -17 6 -17 13 -17 13 0 -7z"/>
<path d="M4200 553 c0 -5 -19 -9 -43 -11 -23 -1 -51 -4 -62 -6 -11 -3 -26 -5
-33 -5 -7 -1 -10 -6 -6 -12 9 -15 95 -3 106 14 5 8 8 8 8 0 0 -6 9 -9 20 -6
17 5 30 33 15 33 -3 0 -5 -3 -5 -7z"/>
<path d="M3835 470 c-3 -5 -1 -10 4 -10 6 0 11 5 11 10 0 6 -2 10 -4 10 -3 0
-8 -4 -11 -10z"/>
<path d="M3740 450 c0 -12 8 -12 35 0 18 8 17 9 -7 9 -16 1 -28 -3 -28 -9z"/>
<path d="M2125 393 c3 -10 9 -39 12 -65 3 -27 10 -48 15 -48 5 0 20 -11 34
-25 22 -22 63 -38 119 -47 11 -2 26 -9 34 -16 10 -10 16 -11 21 -2 5 9 18 6
46 -9 33 -18 35 -20 12 -17 -17 3 -28 -1 -32 -10 -3 -8 1 -14 9 -14 8 0 15 -4
15 -9 0 -5 -26 -8 -57 -6 -32 2 -50 1 -40 -2 29 -8 19 -23 -15 -24 -63 -2 -93
3 -130 22 -21 11 -38 15 -38 10 0 -12 124 -73 203 -100 68 -24 180 -38 157
-21 -12 9 -9 10 15 5 51 -12 223 -16 229 -7 3 6 -5 12 -19 14 -15 3 -22 1 -18
-5 4 -6 -4 -7 -23 -2 -16 4 -42 9 -59 10 -31 3 -104 22 -185 48 -43 14 -44 14
-18 22 15 4 32 4 37 0 15 -9 14 18 -1 33 -7 7 -8 12 -2 13 20 2 101 -2 139 -6
40 -5 39 -5 -10 11 l-50 17 30 8 c17 5 58 8 92 6 33 -1 59 1 56 6 -2 4 -17 7
-33 7 -34 0 -287 55 -328 72 -15 6 -38 12 -51 14 -14 1 -34 7 -45 12 -12 6
-35 16 -53 23 -34 14 -53 40 -56 77 0 12 -5 22 -10 22 -5 0 -6 -8 -2 -17z
m296 -201 c-7 -2 -18 1 -23 6 -8 8 -4 9 13 5 13 -4 18 -8 10 -11z"/>
<path d="M3938 403 c7 -3 16 -2 19 1 4 3 -2 6 -13 5 -11 0 -14 -3 -6 -6z"/>
<path d="M2100 364 c0 -8 5 -12 10 -9 6 3 10 10 10 16 0 5 -4 9 -10 9 -5 0
-10 -7 -10 -16z"/>
<path d="M4262 330 c-27 -25 -27 -26 -1 -33 16 -4 18 -3 8 9 -7 8 -7 14 -1 14
5 0 13 -7 16 -16 9 -24 7 -36 -4 -29 -6 4 -16 3 -23 -3 -17 -13 -106 -36 -113
-29 -12 11 6 25 26 20 11 -3 20 0 20 6 0 6 3 10 8 10 4 -1 14 -1 22 0 12 1 13
3 1 10 -16 10 -51 3 -51 -11 0 -5 -4 -7 -9 -4 -4 3 -46 -5 -92 -18 -89 -25
-212 -51 -319 -66 l-65 -9 75 5 c41 3 89 8 105 10 17 2 44 5 60 6 17 2 32 6
35 10 3 3 23 9 45 11 58 8 85 15 100 27 8 7 15 7 19 1 8 -12 0 -17 -42 -26
-18 -4 -36 -13 -38 -19 -3 -8 -15 -11 -31 -8 -17 3 -24 1 -19 -6 3 -6 -2 -13
-11 -15 -14 -4 -13 -5 5 -6 12 0 22 2 22 7 0 4 24 8 53 9 28 1 72 7 97 12 43
10 42 10 -18 5 -35 -3 -71 -8 -80 -11 -12 -4 -14 -3 -7 5 6 6 52 16 103 22 81
9 95 8 109 -5 20 -21 9 -32 -14 -14 -16 13 -17 12 -4 -3 7 -10 10 -18 5 -19
-5 0 0 -4 11 -8 11 -5 25 -4 33 1 8 7 12 7 12 -1 0 -6 -11 -13 -25 -17 -14 -3
-25 -10 -25 -15 0 -12 7 -11 31 1 16 9 19 7 19 -8 0 -11 -7 -25 -15 -32 -19
-15 -14 -23 9 -14 24 9 22 152 -2 217 l-18 47 -22 -20z"/>
<path d="M2116 327 c3 -10 9 -15 12 -12 3 3 0 11 -7 18 -10 9 -11 8 -5 -6z"/>
<path d="M5080 320 c-11 -21 -8 -75 8 -140 8 -31 19 -55 59 -124 7 -11 13 -29
13 -38 0 -12 8 -18 21 -18 20 0 21 4 16 58 -13 130 -59 268 -94 279 -6 2 -17
-5 -23 -17z"/>
<path d="M5506 204 c-18 -17 -13 -58 10 -84 7 -8 17 -28 23 -43 6 -16 15 -25
21 -22 5 3 22 -1 37 -8 15 -8 43 -18 61 -22 30 -6 32 -5 32 20 0 103 -129 215
-184 159z"/>
<path d="M4669 181 c-69 -70 -12 -181 93 -181 49 0 81 21 96 62 20 52 -1 96
-61 126 -60 30 -92 28 -128 -7z"/>
<path d="M1330 176 c0 -2 7 -9 15 -16 9 -7 15 -8 15 -2 0 5 -7 12 -15 16 -8 3
-15 4 -15 2z"/>
<path d="M2317 169 c7 -7 15 -10 18 -7 3 3 -2 9 -12 12 -14 6 -15 5 -6 -5z"/>
<path d="M3920 170 c0 -5 7 -10 15 -10 8 0 15 5 15 10 0 6 -7 10 -15 10 -8 0
-15 -4 -15 -10z"/>
<path d="M4510 133 c0 -67 11 -123 23 -123 6 0 8 3 4 6 -3 3 4 24 15 46 21 39
21 40 2 75 -29 55 -44 54 -44 -4z"/>
<path d="M2588 163 c7 -3 16 -2 19 1 4 3 -2 6 -13 5 -11 0 -14 -3 -6 -6z"/>
<path d="M3848 163 c7 -3 16 -2 19 1 4 3 -2 6 -13 5 -11 0 -14 -3 -6 -6z"/>
<path d="M3888 163 c7 -3 16 -2 19 1 4 3 -2 6 -13 5 -11 0 -14 -3 -6 -6z"/>
<path d="M1336 132 c-3 -5 1 -9 9 -9 8 0 12 4 9 9 -3 4 -7 8 -9 8 -2 0 -6 -4
-9 -8z"/>
<path d="M2082 105 c21 -22 39 -37 42 -34 2 2 -14 19 -37 38 l-42 34 37 -38z"/>
<path d="M988 123 c7 -3 16 -2 19 1 4 3 -2 6 -13 5 -11 0 -14 -3 -6 -6z"/>
<path d="M1300 110 c-9 -6 -10 -10 -3 -10 6 0 15 5 18 10 8 12 4 12 -15 0z"/>
<path d="M4170 99 c-14 -4 -19 -7 -12 -8 24 -2 6 -26 -24 -32 l-29 -6 29 -8
c19 -5 31 -4 36 5 4 7 12 10 17 7 5 -4 26 -1 46 5 31 9 34 13 21 25 -8 8 -20
12 -27 10 -9 -4 -9 -6 1 -6 23 -2 12 -21 -12 -21 -27 0 -43 16 -24 23 23 8 3
14 -22 6z"/>
<path d="M4095 80 c-13 -5 -14 -9 -5 -9 8 0 24 4 35 9 13 5 14 9 5 9 -8 0 -24
-4 -35 -9z"/>
<path d="M2157 51 c12 -10 20 -21 17 -24 -3 -3 1 -5 8 -4 36 1 69 -4 65 -10
-3 -5 14 -9 37 -10 22 -1 34 1 26 4 -140 52 -174 61 -153 44z"/>
<path d="M4012 63 c-29 -4 -31 -6 -16 -20 9 -9 19 -12 22 -7 4 5 18 15 32 21
26 12 19 13 -38 6z"/>
<path d="M4080 45 c0 -8 8 -15 18 -14 10 0 12 3 4 6 -6 2 -10 9 -6 14 3 5 0 9
-5 9 -6 0 -11 -7 -11 -15z"/>
<path d="M3915 41 c-6 -5 -23 -12 -40 -14 -16 -3 -4 -4 27 -3 58 1 73 8 42 20
-20 8 -18 8 -29 -3z"/>
<path d="M3810 19 c0 -5 5 -7 10 -4 6 3 10 8 10 11 0 2 -4 4 -10 4 -5 0 -10
-5 -10 -11z"/>
<path d="M3975 9 c-4 -5 13 -9 36 -9 48 0 48 9 0 15 -17 2 -33 -1 -36 -6z"/>
<path d="M4103 13 c9 -2 23 -2 30 0 6 3 -1 5 -18 5 -16 0 -22 -2 -12 -5z"/>
<path d="M3688 3 c7 -3 16 -2 19 1 4 3 -2 6 -13 5 -11 0 -14 -3 -6 -6z"/>
</g>
</svg>
